<mxfile host="app.diagrams.net" agent="Mozilla/5.0 (Windows NT 10.0; Win64; x64) AppleWebKit/537.36 (KHTML, like Gecko) Chrome/131.0.0.0 Safari/537.36" version="25.0.1" pages="6">
  <diagram name="Página-1" id="rdco0wOXCABvnDL4DwOO">
    <mxGraphModel dx="756" dy="1541" grid="1" gridSize="10" guides="1" tooltips="1" connect="1" arrows="1" fold="1" page="1" pageScale="1" pageWidth="827" pageHeight="1169" math="0" shadow="0">
      <root>
        <mxCell id="0" />
        <mxCell id="1" parent="0" />
        <mxCell id="UTb47Tth2jgxOraOCgex-2" value="&lt;h1&gt;&lt;font style=&quot;vertical-align: inherit;&quot;&gt;&lt;font style=&quot;vertical-align: inherit;&quot;&gt;&lt;font style=&quot;vertical-align: inherit;&quot;&gt;&lt;font style=&quot;vertical-align: inherit; font-size: 18px;&quot; color=&quot;#7f00ff&quot;&gt;ADMINISTRADOR&lt;/font&gt;&lt;/font&gt;&lt;/font&gt;&lt;/font&gt;&lt;/h1&gt;" style="text;html=1;align=center;verticalAlign=middle;resizable=0;points=[];autosize=1;strokeColor=none;fillColor=none;" parent="1" vertex="1">
          <mxGeometry x="21.75" y="360" width="180" height="70" as="geometry" />
        </mxCell>
        <mxCell id="UTb47Tth2jgxOraOCgex-3" value="&lt;h1 style=&quot;forced-color-adjust: none; color: rgb(0, 0, 0); font-family: Helvetica; font-style: normal; font-variant-ligatures: normal; font-variant-caps: normal; letter-spacing: normal; orphans: 2; text-align: center; text-indent: 0px; text-transform: none; widows: 2; word-spacing: 0px; -webkit-text-stroke-width: 0px; white-space: nowrap; background-color: rgb(251, 251, 251); text-decoration-thickness: initial; text-decoration-style: initial; text-decoration-color: initial;&quot;&gt;&lt;font style=&quot;forced-color-adjust: none; vertical-align: inherit;&quot;&gt;&lt;font style=&quot;forced-color-adjust: none; vertical-align: inherit;&quot;&gt;&lt;font style=&quot;forced-color-adjust: none; vertical-align: inherit;&quot;&gt;&lt;font color=&quot;#7f00ff&quot; style=&quot;forced-color-adjust: none; vertical-align: inherit;&quot;&gt;SISTEMA&lt;/font&gt;&lt;/font&gt;&lt;/font&gt;&lt;/font&gt;&lt;/h1&gt;" style="text;whiteSpace=wrap;html=1;" parent="1" vertex="1">
          <mxGeometry x="470" y="-10" width="240" height="80" as="geometry" />
        </mxCell>
        <mxCell id="UTb47Tth2jgxOraOCgex-4" value="R1 Visualizar catálogo de productos" style="ellipse;whiteSpace=wrap;html=1;fillColor=#dae8fc;strokeColor=#6c8ebf;" parent="1" vertex="1">
          <mxGeometry x="399.75" y="80" width="255" height="20" as="geometry" />
        </mxCell>
        <mxCell id="UTb47Tth2jgxOraOCgex-5" value="" style="endArrow=none;html=1;rounded=0;exitX=1.025;exitY=0.5;exitDx=0;exitDy=0;exitPerimeter=0;entryX=0.021;entryY=0.65;entryDx=0;entryDy=0;entryPerimeter=0;" parent="1" target="UTb47Tth2jgxOraOCgex-4" edge="1">
          <mxGeometry width="50" height="50" relative="1" as="geometry">
            <mxPoint x="152.25" y="315.0000000000002" as="sourcePoint" />
            <mxPoint x="354" y="290" as="targetPoint" />
          </mxGeometry>
        </mxCell>
        <mxCell id="UTb47Tth2jgxOraOCgex-11" value="R20 Definir tarifas para mejorar ganancias" style="ellipse;whiteSpace=wrap;html=1;fillColor=#dae8fc;strokeColor=#6c8ebf;" parent="1" vertex="1">
          <mxGeometry x="402.25" y="120" width="250" height="30" as="geometry" />
        </mxCell>
        <mxCell id="gQZBcN0fl-7sRO2YCng1-4" value="" style="edgeStyle=orthogonalEdgeStyle;rounded=0;orthogonalLoop=1;jettySize=auto;html=1;" parent="1" source="UTb47Tth2jgxOraOCgex-12" target="gQZBcN0fl-7sRO2YCng1-2" edge="1">
          <mxGeometry relative="1" as="geometry" />
        </mxCell>
        <mxCell id="gQZBcN0fl-7sRO2YCng1-5" value="&amp;lt;&amp;lt;Incluye&amp;gt;&amp;gt;" style="edgeLabel;html=1;align=center;verticalAlign=middle;resizable=0;points=[];" parent="gQZBcN0fl-7sRO2YCng1-4" vertex="1" connectable="0">
          <mxGeometry x="-0.6925" y="4" relative="1" as="geometry">
            <mxPoint x="31" y="4" as="offset" />
          </mxGeometry>
        </mxCell>
        <mxCell id="UTb47Tth2jgxOraOCgex-12" value="R21 Establecer promociones para temporadas bajas" style="ellipse;whiteSpace=wrap;html=1;fillColor=#dae8fc;strokeColor=#6c8ebf;" parent="1" vertex="1">
          <mxGeometry x="370" y="170" width="300.25" height="30" as="geometry" />
        </mxCell>
        <mxCell id="UTb47Tth2jgxOraOCgex-14" value="R23 Aprobar o rechazar solicitudes de reabastecimineto&amp;nbsp;" style="ellipse;whiteSpace=wrap;html=1;fillColor=#dae8fc;strokeColor=#6c8ebf;" parent="1" vertex="1">
          <mxGeometry x="370" y="220" width="340" height="25" as="geometry" />
        </mxCell>
        <mxCell id="UTb47Tth2jgxOraOCgex-16" value="R36 Recibir informes sobre la efectividad de las promociones" style="ellipse;whiteSpace=wrap;html=1;fillColor=#dae8fc;strokeColor=#6c8ebf;" parent="1" vertex="1">
          <mxGeometry x="391.25" y="340" width="345" height="40" as="geometry" />
        </mxCell>
        <mxCell id="UTb47Tth2jgxOraOCgex-18" value="R38 Coordianar con proveedores para ajustar promociones basadas en pagos" style="ellipse;whiteSpace=wrap;html=1;fillColor=#dae8fc;strokeColor=#6c8ebf;" parent="1" vertex="1">
          <mxGeometry x="340" y="400" width="447.5" height="40" as="geometry" />
        </mxCell>
        <mxCell id="UTb47Tth2jgxOraOCgex-26" value="" style="endArrow=none;html=1;rounded=0;exitX=0.941;exitY=0.528;exitDx=0;exitDy=0;exitPerimeter=0;entryX=0;entryY=0.5;entryDx=0;entryDy=0;" parent="1" target="UTb47Tth2jgxOraOCgex-11" edge="1">
          <mxGeometry width="50" height="50" relative="1" as="geometry">
            <mxPoint x="144.69000000000005" y="318.6400000000001" as="sourcePoint" />
            <mxPoint x="425" y="113" as="targetPoint" />
          </mxGeometry>
        </mxCell>
        <mxCell id="UTb47Tth2jgxOraOCgex-27" value="" style="endArrow=none;html=1;rounded=0;exitX=0.915;exitY=0.519;exitDx=0;exitDy=0;exitPerimeter=0;entryX=0;entryY=0.5;entryDx=0;entryDy=0;" parent="1" target="UTb47Tth2jgxOraOCgex-12" edge="1">
          <mxGeometry width="50" height="50" relative="1" as="geometry">
            <mxPoint x="142.35000000000014" y="317.4699999999998" as="sourcePoint" />
            <mxPoint x="435" y="123" as="targetPoint" />
          </mxGeometry>
        </mxCell>
        <mxCell id="UTb47Tth2jgxOraOCgex-30" value="" style="endArrow=none;html=1;rounded=0;entryX=0;entryY=0.5;entryDx=0;entryDy=0;" parent="1" target="UTb47Tth2jgxOraOCgex-14" edge="1">
          <mxGeometry width="50" height="50" relative="1" as="geometry">
            <mxPoint x="140" y="320" as="sourcePoint" />
            <mxPoint x="393" y="269" as="targetPoint" />
          </mxGeometry>
        </mxCell>
        <mxCell id="UTb47Tth2jgxOraOCgex-31" value="" style="endArrow=none;html=1;rounded=0;entryX=0;entryY=0.5;entryDx=0;entryDy=0;" parent="1" target="UTb47Tth2jgxOraOCgex-16" edge="1">
          <mxGeometry width="50" height="50" relative="1" as="geometry">
            <mxPoint x="140" y="320" as="sourcePoint" />
            <mxPoint x="403" y="279" as="targetPoint" />
          </mxGeometry>
        </mxCell>
        <mxCell id="UTb47Tth2jgxOraOCgex-33" value="" style="endArrow=none;html=1;rounded=0;entryX=0;entryY=0.5;entryDx=0;entryDy=0;" parent="1" target="UTb47Tth2jgxOraOCgex-18" edge="1">
          <mxGeometry width="50" height="50" relative="1" as="geometry">
            <mxPoint x="140" y="320" as="sourcePoint" />
            <mxPoint x="350" y="439" as="targetPoint" />
          </mxGeometry>
        </mxCell>
        <mxCell id="UTb47Tth2jgxOraOCgex-36" value="" style="verticalLabelPosition=bottom;sketch=0;html=1;fillColor=#A153A0;verticalAlign=top;align=center;pointerEvents=1;shape=mxgraph.cisco_safe.design.actor_1;" parent="1" vertex="1">
          <mxGeometry x="80" y="260" width="63.5" height="120" as="geometry" />
        </mxCell>
        <mxCell id="gQZBcN0fl-7sRO2YCng1-2" value="R8 Gestionar tarifas de productos" style="ellipse;whiteSpace=wrap;html=1;fillColor=#ffe6cc;strokeColor=#d79b00;" parent="1" vertex="1">
          <mxGeometry x="787.5" y="170" width="210.25" height="30" as="geometry" />
        </mxCell>
        <mxCell id="hUie1apMR69LkhFy64fN-1" value="" style="endArrow=none;html=1;rounded=0;entryX=0;entryY=0.5;entryDx=0;entryDy=0;exitX=0.92;exitY=0.508;exitDx=0;exitDy=0;exitPerimeter=0;" parent="1" target="hUie1apMR69LkhFy64fN-2" edge="1">
          <mxGeometry width="50" height="50" relative="1" as="geometry">
            <mxPoint x="123" y="311" as="sourcePoint" />
            <mxPoint x="414" y="285" as="targetPoint" />
          </mxGeometry>
        </mxCell>
        <mxCell id="hUie1apMR69LkhFy64fN-2" value="R35&amp;nbsp;&lt;span style=&quot;font-size: 11pt; line-height: 107%; font-family: Calibri, sans-serif;&quot; lang=&quot;ES-CL&quot;&gt;Analizar las tarifas de la competencia para ajustar las nuestras&lt;/span&gt;" style="ellipse;whiteSpace=wrap;html=1;fillColor=#dae8fc;strokeColor=#6c8ebf;" parent="1" vertex="1">
          <mxGeometry x="402.25" y="270" width="340" height="55" as="geometry" />
        </mxCell>
      </root>
    </mxGraphModel>
  </diagram>
  <diagram id="2Pn-5mRKoJvuz_4XWtLw" name="Página-2">
    <mxGraphModel dx="1291" dy="1665" grid="1" gridSize="10" guides="1" tooltips="1" connect="1" arrows="1" fold="1" page="1" pageScale="1" pageWidth="827" pageHeight="1169" math="0" shadow="0">
      <root>
        <mxCell id="0" />
        <mxCell id="1" parent="0" />
        <mxCell id="T_DBHRuWjzbomtLIql39-1" value="&lt;h1&gt;&lt;font style=&quot;vertical-align: inherit;&quot;&gt;&lt;font style=&quot;vertical-align: inherit;&quot;&gt;&lt;font style=&quot;vertical-align: inherit;&quot;&gt;&lt;font style=&quot;vertical-align: inherit; font-size: 18px;&quot; color=&quot;#7f00ff&quot;&gt;CLIENTE&lt;/font&gt;&lt;/font&gt;&lt;/font&gt;&lt;/font&gt;&lt;/h1&gt;" style="text;html=1;align=center;verticalAlign=middle;resizable=0;points=[];autosize=1;strokeColor=none;fillColor=none;" vertex="1" parent="1">
          <mxGeometry x="61.75" y="360" width="100" height="70" as="geometry" />
        </mxCell>
        <mxCell id="T_DBHRuWjzbomtLIql39-2" value="&lt;h1 style=&quot;forced-color-adjust: none; color: rgb(0, 0, 0); font-family: Helvetica; font-style: normal; font-variant-ligatures: normal; font-variant-caps: normal; letter-spacing: normal; orphans: 2; text-align: center; text-indent: 0px; text-transform: none; widows: 2; word-spacing: 0px; -webkit-text-stroke-width: 0px; white-space: nowrap; background-color: rgb(251, 251, 251); text-decoration-thickness: initial; text-decoration-style: initial; text-decoration-color: initial;&quot;&gt;&lt;font style=&quot;forced-color-adjust: none; vertical-align: inherit;&quot;&gt;&lt;font style=&quot;forced-color-adjust: none; vertical-align: inherit;&quot;&gt;&lt;font style=&quot;forced-color-adjust: none; vertical-align: inherit;&quot;&gt;&lt;font color=&quot;#7f00ff&quot; style=&quot;forced-color-adjust: none; vertical-align: inherit;&quot;&gt;SISTEMA&lt;/font&gt;&lt;/font&gt;&lt;/font&gt;&lt;/font&gt;&lt;/h1&gt;" style="text;whiteSpace=wrap;html=1;" vertex="1" parent="1">
          <mxGeometry x="470" y="-10" width="240" height="80" as="geometry" />
        </mxCell>
        <mxCell id="T_DBHRuWjzbomtLIql39-3" value="R1 Visualizar catálogo de productos" style="ellipse;whiteSpace=wrap;html=1;fillColor=#dae8fc;strokeColor=#6c8ebf;" vertex="1" parent="1">
          <mxGeometry x="399.75" y="80" width="255" height="20" as="geometry" />
        </mxCell>
        <mxCell id="T_DBHRuWjzbomtLIql39-4" value="" style="endArrow=none;html=1;rounded=0;exitX=1.025;exitY=0.5;exitDx=0;exitDy=0;exitPerimeter=0;entryX=0.021;entryY=0.65;entryDx=0;entryDy=0;entryPerimeter=0;" edge="1" parent="1" target="T_DBHRuWjzbomtLIql39-3">
          <mxGeometry width="50" height="50" relative="1" as="geometry">
            <mxPoint x="152.25" y="315.0000000000002" as="sourcePoint" />
            <mxPoint x="354" y="290" as="targetPoint" />
          </mxGeometry>
        </mxCell>
        <mxCell id="T_DBHRuWjzbomtLIql39-5" value="R2&amp;nbsp;&amp;nbsp;&lt;span style=&quot;color: rgba(0, 0, 0, 0); font-family: monospace; font-size: 0px; text-align: start; text-wrap-mode: nowrap;&quot;&gt;%3CmxGraphModel%3E%3Croot%3E%3CmxCell%20id%3D%220%22%2F%3E%3CmxCell%20id%3D%221%22%20parent%3D%220%22%2F%3E%3CmxCell%20id%3D%222%22%20value%3D%22%26lt%3Bh1%26gt%3B%26lt%3Bfont%20style%3D%26quot%3Bvertical-align%3A%20inherit%3B%26quot%3B%26gt%3B%26lt%3Bfont%20style%3D%26quot%3Bvertical-align%3A%20inherit%3B%26quot%3B%26gt%3B%26lt%3Bfont%20style%3D%26quot%3Bvertical-align%3A%20inherit%3B%26quot%3B%26gt%3B%26lt%3Bfont%20style%3D%26quot%3Bvertical-align%3A%20inherit%3B%20font-size%3A%2018px%3B%26quot%3B%20color%3D%26quot%3B%237f00ff%26quot%3B%26gt%3BADMINISTRADOR%26lt%3B%2Ffont%26gt%3B%26lt%3B%2Ffont%26gt%3B%26lt%3B%2Ffont%26gt%3B%26lt%3B%2Ffont%26gt%3B%26lt%3B%2Fh1%26gt%3B%22%20style%3D%22text%3Bhtml%3D1%3Balign%3Dcenter%3BverticalAlign%3Dmiddle%3Bresizable%3D0%3Bpoints%3D%5B%5D%3Bautosize%3D1%3BstrokeColor%3Dnone%3BfillColor%3Dnone%3B%22%20vertex%3D%221%22%20parent%3D%221%22%3E%3CmxGeometry%20x%3D%2221.75%22%20y%3D%22360%22%20width%3D%22180%22%20height%3D%2270%22%20as%3D%22geometry%22%2F%3E%3C%2FmxCell%3E%3CmxCell%20id%3D%223%22%20value%3D%22%26lt%3Bh1%20style%3D%26quot%3Bforced-color-adjust%3A%20none%3B%20color%3A%20rgb(0%2C%200%2C%200)%3B%20font-family%3A%20Helvetica%3B%20font-style%3A%20normal%3B%20font-variant-ligatures%3A%20normal%3B%20font-variant-caps%3A%20normal%3B%20letter-spacing%3A%20normal%3B%20orphans%3A%202%3B%20text-align%3A%20center%3B%20text-indent%3A%200px%3B%20text-transform%3A%20none%3B%20widows%3A%202%3B%20word-spacing%3A%200px%3B%20-webkit-text-stroke-width%3A%200px%3B%20white-space%3A%20nowrap%3B%20background-color%3A%20rgb(251%2C%20251%2C%20251)%3B%20text-decoration-thickness%3A%20initial%3B%20text-decoration-style%3A%20initial%3B%20text-decoration-color%3A%20initial%3B%26quot%3B%26gt%3B%26lt%3Bfont%20style%3D%26quot%3Bforced-color-adjust%3A%20none%3B%20vertical-align%3A%20inherit%3B%26quot%3B%26gt%3B%26lt%3Bfont%20style%3D%26quot%3Bforced-color-adjust%3A%20none%3B%20vertical-align%3A%20inherit%3B%26quot%3B%26gt%3B%26lt%3Bfont%20style%3D%26quot%3Bforced-color-adjust%3A%20none%3B%20vertical-align%3A%20inherit%3B%26quot%3B%26gt%3B%26lt%3Bfont%20color%3D%26quot%3B%237f00ff%26quot%3B%20style%3D%26quot%3Bforced-color-adjust%3A%20none%3B%20vertical-align%3A%20inherit%3B%26quot%3B%26gt%3BSISTEMA%26lt%3B%2Ffont%26gt%3B%26lt%3B%2Ffont%26gt%3B%26lt%3B%2Ffont%26gt%3B%26lt%3B%2Ffont%26gt%3B%26lt%3B%2Fh1%26gt%3B%22%20style%3D%22text%3BwhiteSpace%3Dwrap%3Bhtml%3D1%3B%22%20vertex%3D%221%22%20parent%3D%221%22%3E%3CmxGeometry%20x%3D%22470%22%20y%3D%22-10%22%20width%3D%22240%22%20height%3D%2280%22%20as%3D%22geometry%22%2F%3E%3C%2FmxCell%3E%3CmxCell%20id%3D%224%22%20value%3D%22R1%20Visualizar%20cat%C3%A1logo%20de%20productos%22%20style%3D%22ellipse%3BwhiteSpace%3Dwrap%3Bhtml%3D1%3BfillColor%3D%23dae8fc%3BstrokeColor%3D%236c8ebf%3B%22%20vertex%3D%221%22%20parent%3D%221%22%3E%3CmxGeometry%20x%3D%22399.75%22%20y%3D%2280%22%20width%3D%22255%22%20height%3D%2220%22%20as%3D%22geometry%22%2F%3E%3C%2FmxCell%3E%3CmxCell%20id%3D%225%22%20value%3D%22%22%20style%3D%22endArrow%3Dnone%3Bhtml%3D1%3Brounded%3D0%3BexitX%3D1.025%3BexitY%3D0.5%3BexitDx%3D0%3BexitDy%3D0%3BexitPerimeter%3D0%3BentryX%3D0.021%3BentryY%3D0.65%3BentryDx%3D0%3BentryDy%3D0%3BentryPerimeter%3D0%3B%22%20edge%3D%221%22%20target%3D%224%22%20parent%3D%221%22%3E%3CmxGeometry%20width%3D%2250%22%20height%3D%2250%22%20relative%3D%221%22%20as%3D%22geometry%22%3E%3CmxPoint%20x%3D%22152.25%22%20y%3D%22315.0000000000002%22%20as%3D%22sourcePoint%22%2F%3E%3CmxPoint%20x%3D%22354%22%20y%3D%22290%22%20as%3D%22targetPoint%22%2F%3E%3C%2FmxGeometry%3E%3C%2FmxCell%3E%3CmxCell%20id%3D%226%22%20value%3D%22R20%20Definir%20tarifas%20para%20mejorar%20ganancias%22%20style%3D%22ellipse%3BwhiteSpace%3Dwrap%3Bhtml%3D1%3BfillColor%3D%23dae8fc%3BstrokeColor%3D%236c8ebf%3B%22%20vertex%3D%221%22%20parent%3D%221%22%3E%3CmxGeometry%20x%3D%22402.25%22%20y%3D%22120%22%20width%3D%22250%22%20height%3D%2230%22%20as%3D%22geometry%22%2F%3E%3C%2FmxCell%3E%3CmxCell%20id%3D%227%22%20value%3D%22%22%20style%3D%22edgeStyle%3DorthogonalEdgeStyle%3Brounded%3D0%3BorthogonalLoop%3D1%3BjettySize%3Dauto%3Bhtml%3D1%3B%22%20edge%3D%221%22%20source%3D%229%22%20target%3D%2219%22%20parent%3D%221%22%3E%3CmxGeometry%20relative%3D%221%22%20as%3D%22geometry%22%2F%3E%3C%2FmxCell%3E%3CmxCell%20id%3D%228%22%20value%3D%22%26amp%3Blt%3B%26amp%3Blt%3BIncluye%26amp%3Bgt%3B%26amp%3Bgt%3B%22%20style%3D%22edgeLabel%3Bhtml%3D1%3Balign%3Dcenter%3BverticalAlign%3Dmiddle%3Bresizable%3D0%3Bpoints%3D%5B%5D%3B%22%20vertex%3D%221%22%20connectable%3D%220%22%20parent%3D%227%22%3E%3CmxGeometry%20x%3D%22-0.6925%22%20y%3D%224%22%20relative%3D%221%22%20as%3D%22geometry%22%3E%3CmxPoint%20x%3D%2231%22%20y%3D%224%22%20as%3D%22offset%22%2F%3E%3C%2FmxGeometry%3E%3C%2FmxCell%3E%3CmxCell%20id%3D%229%22%20value%3D%22R21%20Establecer%20promociones%20para%20temporadas%20bajas%22%20style%3D%22ellipse%3BwhiteSpace%3Dwrap%3Bhtml%3D1%3BfillColor%3D%23dae8fc%3BstrokeColor%3D%236c8ebf%3B%22%20vertex%3D%221%22%20parent%3D%221%22%3E%3CmxGeometry%20x%3D%22370%22%20y%3D%22170%22%20width%3D%22300.25%22%20height%3D%2230%22%20as%3D%22geometry%22%2F%3E%3C%2FmxCell%3E%3CmxCell%20id%3D%2210%22%20value%3D%22R23%20Aprobar%20o%20rechazar%20solicitudes%20de%20reabastecimineto%26amp%3Bnbsp%3B%22%20style%3D%22ellipse%3BwhiteSpace%3Dwrap%3Bhtml%3D1%3BfillColor%3D%23dae8fc%3BstrokeColor%3D%236c8ebf%3B%22%20vertex%3D%221%22%20parent%3D%221%22%3E%3CmxGeometry%20x%3D%22370%22%20y%3D%22220%22%20width%3D%22340%22%20height%3D%2225%22%20as%3D%22geometry%22%2F%3E%3C%2FmxCell%3E%3CmxCell%20id%3D%2211%22%20value%3D%22R36%20Recibir%20informes%20sobre%20la%20efectividad%20de%20las%20promociones%22%20style%3D%22ellipse%3BwhiteSpace%3Dwrap%3Bhtml%3D1%3BfillColor%3D%23dae8fc%3BstrokeColor%3D%236c8ebf%3B%22%20vertex%3D%221%22%20parent%3D%221%22%3E%3CmxGeometry%20x%3D%22385%22%20y%3D%22280%22%20width%3D%22345%22%20height%3D%2240%22%20as%3D%22geometry%22%2F%3E%3C%2FmxCell%3E%3CmxCell%20id%3D%2212%22%20value%3D%22R38%20Coordianar%20con%20proveedores%20para%20ajustar%20promociones%20basadas%20en%20pagos%22%20style%3D%22ellipse%3BwhiteSpace%3Dwrap%3Bhtml%3D1%3BfillColor%3D%23dae8fc%3BstrokeColor%3D%236c8ebf%3B%22%20vertex%3D%221%22%20parent%3D%221%22%3E%3CmxGeometry%20x%3D%22340%22%20y%3D%22330%22%20width%3D%22447.5%22%20height%3D%2240%22%20as%3D%22geometry%22%2F%3E%3C%2FmxCell%3E%3CmxCell%20id%3D%2213%22%20value%3D%22%22%20style%3D%22endArrow%3Dnone%3Bhtml%3D1%3Brounded%3D0%3BexitX%3D0.941%3BexitY%3D0.528%3BexitDx%3D0%3BexitDy%3D0%3BexitPerimeter%3D0%3BentryX%3D0%3BentryY%3D0.5%3BentryDx%3D0%3BentryDy%3D0%3B%22%20edge%3D%221%22%20target%3D%226%22%20parent%3D%221%22%3E%3CmxGeometry%20width%3D%2250%22%20height%3D%2250%22%20relative%3D%221%22%20as%3D%22geometry%22%3E%3CmxPoint%20x%3D%22144.69000000000005%22%20y%3D%22318.6400000000001%22%20as%3D%22sourcePoint%22%2F%3E%3CmxPoint%20x%3D%22425%22%20y%3D%22113%22%20as%3D%22targetPoint%22%2F%3E%3C%2FmxGeometry%3E%3C%2FmxCell%3E%3CmxCell%20id%3D%2214%22%20value%3D%22%22%20style%3D%22endArrow%3Dnone%3Bhtml%3D1%3Brounded%3D0%3BexitX%3D0.915%3BexitY%3D0.519%3BexitDx%3D0%3BexitDy%3D0%3BexitPerimeter%3D0%3BentryX%3D0%3BentryY%3D0.5%3BentryDx%3D0%3BentryDy%3D0%3B%22%20edge%3D%221%22%20target%3D%229%22%20parent%3D%221%22%3E%3CmxGeometry%20width%3D%2250%22%20height%3D%2250%22%20relative%3D%221%22%20as%3D%22geometry%22%3E%3CmxPoint%20x%3D%22142.35000000000014%22%20y%3D%22317.4699999999998%22%20as%3D%22sourcePoint%22%2F%3E%3CmxPoint%20x%3D%22435%22%20y%3D%22123%22%20as%3D%22targetPoint%22%2F%3E%3C%2FmxGeometry%3E%3C%2FmxCell%3E%3CmxCell%20id%3D%2215%22%20value%3D%22%22%20style%3D%22endArrow%3Dnone%3Bhtml%3D1%3Brounded%3D0%3BentryX%3D0%3BentryY%3D0.5%3BentryDx%3D0%3BentryDy%3D0%3B%22%20edge%3D%221%22%20target%3D%2210%22%20parent%3D%221%22%3E%3CmxGeometry%20width%3D%2250%22%20height%3D%2250%22%20relative%3D%221%22%20as%3D%22geometry%22%3E%3CmxPoint%20x%3D%22140%22%20y%3D%22320%22%20as%3D%22sourcePoint%22%2F%3E%3CmxPoint%20x%3D%22393%22%20y%3D%22269%22%20as%3D%22targetPoint%22%2F%3E%3C%2FmxGeometry%3E%3C%2FmxCell%3E%3CmxCell%20id%3D%2216%22%20value%3D%22%22%20style%3D%22endArrow%3Dnone%3Bhtml%3D1%3Brounded%3D0%3BentryX%3D0%3BentryY%3D0.5%3BentryDx%3D0%3BentryDy%3D0%3B%22%20edge%3D%221%22%20target%3D%2211%22%20parent%3D%221%22%3E%3CmxGeometry%20width%3D%2250%22%20height%3D%2250%22%20relative%3D%221%22%20as%3D%22geometry%22%3E%3CmxPoint%20x%3D%22140%22%20y%3D%22320%22%20as%3D%22sourcePoint%22%2F%3E%3CmxPoint%20x%3D%22403%22%20y%3D%22279%22%20as%3D%22targetPoint%22%2F%3E%3C%2FmxGeometry%3E%3C%2FmxCell%3E%3CmxCell%20id%3D%2217%22%20value%3D%22%22%20style%3D%22endArrow%3Dnone%3Bhtml%3D1%3Brounded%3D0%3BentryX%3D0%3BentryY%3D0.5%3BentryDx%3D0%3BentryDy%3D0%3B%22%20edge%3D%221%22%20target%3D%2212%22%20parent%3D%221%22%3E%3CmxGeometry%20width%3D%2250%22%20height%3D%2250%22%20relative%3D%221%22%20as%3D%22geometry%22%3E%3CmxPoint%20x%3D%22140%22%20y%3D%22320%22%20as%3D%22sourcePoint%22%2F%3E%3CmxPoint%20x%3D%22350%22%20y%3D%22439%22%20as%3D%22targetPoint%22%2F%3E%3C%2FmxGeometry%3E%3C%2FmxCell%3E%3CmxCell%20id%3D%2218%22%20value%3D%22%22%20style%3D%22verticalLabelPosition%3Dbottom%3Bsketch%3D0%3Bhtml%3D1%3BfillColor%3D%23A153A0%3BverticalAlign%3Dtop%3Balign%3Dcenter%3BpointerEvents%3D1%3Bshape%3Dmxgraph.cisco_safe.design.actor_1%3B%22%20vertex%3D%221%22%20parent%3D%221%22%3E%3CmxGeometry%20x%3D%2280%22%20y%3D%22260%22%20width%3D%2263.5%22%20height%3D%22120%22%20as%3D%22geometry%22%2F%3E%3C%2FmxCell%3E%3CmxCell%20id%3D%2219%22%20value%3D%22R8%20Gestionar%20tarifas%20de%20productos%22%20style%3D%22ellipse%3BwhiteSpace%3Dwrap%3Bhtml%3D1%3BfillColor%3D%23ffe6cc%3BstrokeColor%3D%23d79b00%3B%22%20vertex%3D%221%22%20parent%3D%221%22%3E%3CmxGeometry%20x%3D%22787.5%22%20y%3D%22170%22%20width%3D%22210.25%22%20height%3D%2230%22%20as%3D%22geometry%22%2F%3E%3C%2FmxCell%3E%3C%2Froot%3E%3C%2FmxGraphModel%3E&amp;nbsp;&lt;/span&gt;&lt;span style=&quot;font-size: 11pt; line-height: 107%; font-family: Calibri, sans-serif;&quot; lang=&quot;ES-CL&quot;&gt;Solicitar varios artículos en una orden&amp;nbsp;&lt;/span&gt;" style="ellipse;whiteSpace=wrap;html=1;fillColor=#dae8fc;strokeColor=#6c8ebf;" vertex="1" parent="1">
          <mxGeometry x="402.25" y="120" width="267.75" height="30" as="geometry" />
        </mxCell>
        <mxCell id="T_DBHRuWjzbomtLIql39-8" value="R3&amp;nbsp;&lt;span style=&quot;font-size: 11pt; line-height: 107%; font-family: Calibri, sans-serif;&quot; lang=&quot;ES-CL&quot;&gt;Modificar pedido antes de despacharlo&lt;/span&gt;" style="ellipse;whiteSpace=wrap;html=1;fillColor=#dae8fc;strokeColor=#6c8ebf;" vertex="1" parent="1">
          <mxGeometry x="370" y="170" width="300.25" height="30" as="geometry" />
        </mxCell>
        <mxCell id="T_DBHRuWjzbomtLIql39-9" value="R4&amp;nbsp;&amp;nbsp;&lt;span style=&quot;font-size: 11pt; line-height: 107%; font-family: Calibri, sans-serif;&quot; lang=&quot;ES-CL&quot;&gt;Realizar seguimientos de pedidos&lt;/span&gt;" style="ellipse;whiteSpace=wrap;html=1;fillColor=#dae8fc;strokeColor=#6c8ebf;" vertex="1" parent="1">
          <mxGeometry x="320" y="220" width="290" height="30" as="geometry" />
        </mxCell>
        <mxCell id="T_DBHRuWjzbomtLIql39-10" value="R5&amp;nbsp;&lt;span style=&quot;font-size: 11pt; line-height: 107%; font-family: Calibri, sans-serif;&quot; lang=&quot;ES-CL&quot;&gt;Registrador de reclamos de un producto&lt;/span&gt;" style="ellipse;whiteSpace=wrap;html=1;fillColor=#fff2cc;strokeColor=#d6b656;" vertex="1" parent="1">
          <mxGeometry x="650" y="300" width="284" height="40" as="geometry" />
        </mxCell>
        <mxCell id="T_DBHRuWjzbomtLIql39-22" style="edgeStyle=orthogonalEdgeStyle;rounded=0;orthogonalLoop=1;jettySize=auto;html=1;entryX=1;entryY=0.5;entryDx=0;entryDy=0;" edge="1" parent="1" source="T_DBHRuWjzbomtLIql39-11" target="T_DBHRuWjzbomtLIql39-9">
          <mxGeometry relative="1" as="geometry" />
        </mxCell>
        <mxCell id="T_DBHRuWjzbomtLIql39-23" value="&amp;lt;&amp;lt;Extiende&amp;gt;&amp;gt;" style="edgeLabel;html=1;align=center;verticalAlign=middle;resizable=0;points=[];" vertex="1" connectable="0" parent="T_DBHRuWjzbomtLIql39-22">
          <mxGeometry x="-0.0256" y="2" relative="1" as="geometry">
            <mxPoint as="offset" />
          </mxGeometry>
        </mxCell>
        <mxCell id="T_DBHRuWjzbomtLIql39-11" value="R7&amp;nbsp;&lt;span style=&quot;font-size: 11pt; line-height: 107%; font-family: Calibri, sans-serif;&quot; lang=&quot;ES-CL&quot;&gt;Asistencia en tiempo real mediante chat&lt;/span&gt;" style="ellipse;whiteSpace=wrap;html=1;fillColor=#e1d5e7;strokeColor=#9673a6;" vertex="1" parent="1">
          <mxGeometry x="740" y="215" width="280" height="40" as="geometry" />
        </mxCell>
        <mxCell id="T_DBHRuWjzbomtLIql39-12" value="" style="endArrow=none;html=1;rounded=0;exitX=0.941;exitY=0.528;exitDx=0;exitDy=0;exitPerimeter=0;entryX=0;entryY=0.5;entryDx=0;entryDy=0;" edge="1" parent="1" target="T_DBHRuWjzbomtLIql39-5">
          <mxGeometry width="50" height="50" relative="1" as="geometry">
            <mxPoint x="144.69000000000005" y="318.6400000000001" as="sourcePoint" />
            <mxPoint x="425" y="113" as="targetPoint" />
          </mxGeometry>
        </mxCell>
        <mxCell id="T_DBHRuWjzbomtLIql39-13" value="" style="endArrow=none;html=1;rounded=0;exitX=0.915;exitY=0.519;exitDx=0;exitDy=0;exitPerimeter=0;entryX=0;entryY=0.5;entryDx=0;entryDy=0;" edge="1" parent="1" target="T_DBHRuWjzbomtLIql39-8">
          <mxGeometry width="50" height="50" relative="1" as="geometry">
            <mxPoint x="142.35000000000014" y="317.4699999999998" as="sourcePoint" />
            <mxPoint x="435" y="123" as="targetPoint" />
          </mxGeometry>
        </mxCell>
        <mxCell id="T_DBHRuWjzbomtLIql39-14" value="" style="endArrow=none;html=1;rounded=0;entryX=0;entryY=0.5;entryDx=0;entryDy=0;" edge="1" parent="1" target="T_DBHRuWjzbomtLIql39-9">
          <mxGeometry width="50" height="50" relative="1" as="geometry">
            <mxPoint x="140" y="320" as="sourcePoint" />
            <mxPoint x="393" y="269" as="targetPoint" />
          </mxGeometry>
        </mxCell>
        <mxCell id="T_DBHRuWjzbomtLIql39-17" value="" style="verticalLabelPosition=bottom;sketch=0;html=1;fillColor=#A153A0;verticalAlign=top;align=center;pointerEvents=1;shape=mxgraph.cisco_safe.design.actor_1;" vertex="1" parent="1">
          <mxGeometry x="80" y="260" width="63.5" height="120" as="geometry" />
        </mxCell>
        <mxCell id="T_DBHRuWjzbomtLIql39-19" value="&lt;span style=&quot;font-size: 11pt; line-height: 107%; font-family: Calibri, sans-serif;&quot; lang=&quot;ES-CL&quot;&gt;R6 Recibir notificaciones de promociones&amp;nbsp;&lt;/span&gt;" style="ellipse;whiteSpace=wrap;html=1;fillColor=#fff2cc;strokeColor=#d6b656;" vertex="1" parent="1">
          <mxGeometry x="736" y="70" width="284" height="40" as="geometry" />
        </mxCell>
        <mxCell id="T_DBHRuWjzbomtLIql39-24" style="edgeStyle=orthogonalEdgeStyle;rounded=0;orthogonalLoop=1;jettySize=auto;html=1;entryX=0.03;entryY=0.422;entryDx=0;entryDy=0;entryPerimeter=0;" edge="1" parent="1" source="T_DBHRuWjzbomtLIql39-3" target="T_DBHRuWjzbomtLIql39-19">
          <mxGeometry relative="1" as="geometry" />
        </mxCell>
        <mxCell id="T_DBHRuWjzbomtLIql39-25" value="Text" style="edgeLabel;html=1;align=center;verticalAlign=middle;resizable=0;points=[];" vertex="1" connectable="0" parent="T_DBHRuWjzbomtLIql39-24">
          <mxGeometry x="-0.0304" y="1" relative="1" as="geometry">
            <mxPoint x="-1" as="offset" />
          </mxGeometry>
        </mxCell>
        <mxCell id="T_DBHRuWjzbomtLIql39-27" value="&amp;lt;&amp;lt;Incluye&amp;gt;&amp;gt;" style="edgeLabel;html=1;align=center;verticalAlign=middle;resizable=0;points=[];" vertex="1" connectable="0" parent="T_DBHRuWjzbomtLIql39-24">
          <mxGeometry x="-0.0065" y="-2" relative="1" as="geometry">
            <mxPoint x="-1" as="offset" />
          </mxGeometry>
        </mxCell>
        <mxCell id="T_DBHRuWjzbomtLIql39-29" value="" style="edgeStyle=segmentEdgeStyle;endArrow=classic;html=1;curved=0;rounded=0;endSize=8;startSize=8;sourcePerimeterSpacing=0;targetPerimeterSpacing=0;entryX=0.043;entryY=0.7;entryDx=0;entryDy=0;entryPerimeter=0;" edge="1" parent="1" target="T_DBHRuWjzbomtLIql39-10">
          <mxGeometry width="100" relative="1" as="geometry">
            <mxPoint x="530" y="250" as="sourcePoint" />
            <mxPoint x="630" y="290" as="targetPoint" />
            <Array as="points">
              <mxPoint x="530" y="328" />
            </Array>
          </mxGeometry>
        </mxCell>
        <mxCell id="T_DBHRuWjzbomtLIql39-30" value="&amp;lt;&amp;lt;Incluye&amp;gt;&amp;gt;" style="edgeLabel;html=1;align=center;verticalAlign=middle;resizable=0;points=[];" vertex="1" connectable="0" parent="T_DBHRuWjzbomtLIql39-29">
          <mxGeometry x="0.0592" y="-7" relative="1" as="geometry">
            <mxPoint x="7" y="-15" as="offset" />
          </mxGeometry>
        </mxCell>
      </root>
    </mxGraphModel>
  </diagram>
  <diagram id="lQPLRDzpSiuCsy4Hpu-b" name="Página-3">
    <mxGraphModel dx="1613" dy="620" grid="1" gridSize="10" guides="1" tooltips="1" connect="1" arrows="1" fold="1" page="1" pageScale="1" pageWidth="827" pageHeight="1169" math="0" shadow="0">
      <root>
        <mxCell id="0" />
        <mxCell id="1" parent="0" />
        <mxCell id="9DtUrn91igBEEmTVcV1j-1" value="&lt;h1&gt;&lt;font color=&quot;#7f00ff&quot;&gt;&lt;span style=&quot;font-size: 18px;&quot;&gt;ENCARGADO DE INVENTARIO&lt;/span&gt;&lt;/font&gt;&lt;/h1&gt;" style="text;html=1;align=center;verticalAlign=middle;resizable=0;points=[];autosize=1;strokeColor=none;fillColor=none;" vertex="1" parent="1">
          <mxGeometry y="380" width="290" height="70" as="geometry" />
        </mxCell>
        <mxCell id="9DtUrn91igBEEmTVcV1j-2" value="&lt;h1 style=&quot;forced-color-adjust: none; color: rgb(0, 0, 0); font-family: Helvetica; font-style: normal; font-variant-ligatures: normal; font-variant-caps: normal; letter-spacing: normal; orphans: 2; text-align: center; text-indent: 0px; text-transform: none; widows: 2; word-spacing: 0px; -webkit-text-stroke-width: 0px; white-space: nowrap; background-color: rgb(251, 251, 251); text-decoration-thickness: initial; text-decoration-style: initial; text-decoration-color: initial;&quot;&gt;&lt;font style=&quot;forced-color-adjust: none; vertical-align: inherit;&quot;&gt;&lt;font style=&quot;forced-color-adjust: none; vertical-align: inherit;&quot;&gt;&lt;font style=&quot;forced-color-adjust: none; vertical-align: inherit;&quot;&gt;&lt;font color=&quot;#7f00ff&quot; style=&quot;forced-color-adjust: none; vertical-align: inherit;&quot;&gt;SISTEMA&lt;/font&gt;&lt;/font&gt;&lt;/font&gt;&lt;/font&gt;&lt;/h1&gt;" style="text;whiteSpace=wrap;html=1;" vertex="1" parent="1">
          <mxGeometry x="480" y="60" width="240" height="80" as="geometry" />
        </mxCell>
        <mxCell id="9DtUrn91igBEEmTVcV1j-8" value="R12&amp;nbsp;&lt;span style=&quot;font-size: 11pt; line-height: 107%; font-family: Calibri, sans-serif;&quot; lang=&quot;ES-CL&quot;&gt;Actualizar información de inventario disponible&lt;/span&gt;" style="ellipse;whiteSpace=wrap;html=1;fillColor=#dae8fc;strokeColor=#6c8ebf;" vertex="1" parent="1">
          <mxGeometry x="400" y="170" width="300" height="50" as="geometry" />
        </mxCell>
        <mxCell id="9DtUrn91igBEEmTVcV1j-9" value="R14&amp;nbsp;&lt;span style=&quot;font-size: 11pt; line-height: 107%; font-family: Calibri, sans-serif;&quot; lang=&quot;ES-CL&quot;&gt;Revisar stock de productos diariamente&lt;/span&gt;" style="ellipse;whiteSpace=wrap;html=1;fillColor=#dae8fc;strokeColor=#6c8ebf;" vertex="1" parent="1">
          <mxGeometry x="380" y="240" width="340" height="25" as="geometry" />
        </mxCell>
        <mxCell id="9DtUrn91igBEEmTVcV1j-10" value="R15&amp;nbsp;&lt;span style=&quot;font-size: 11pt; line-height: 107%; font-family: Calibri, sans-serif;&quot; lang=&quot;ES-CL&quot;&gt;Generar solicitudes de reabastecimiento&lt;/span&gt;" style="ellipse;whiteSpace=wrap;html=1;fillColor=#dae8fc;strokeColor=#6c8ebf;" vertex="1" parent="1">
          <mxGeometry x="385" y="280" width="345" height="40" as="geometry" />
        </mxCell>
        <mxCell id="9DtUrn91igBEEmTVcV1j-11" value="R16&amp;nbsp;&lt;span style=&quot;font-size: 11pt; line-height: 107%; font-family: Calibri, sans-serif;&quot; lang=&quot;ES-CL&quot;&gt;Recibir notificaciones sobre productos rechazados&lt;/span&gt;" style="ellipse;whiteSpace=wrap;html=1;fillColor=#dae8fc;strokeColor=#6c8ebf;" vertex="1" parent="1">
          <mxGeometry x="340" y="330" width="447.5" height="40" as="geometry" />
        </mxCell>
        <mxCell id="9DtUrn91igBEEmTVcV1j-13" value="" style="endArrow=none;html=1;rounded=0;exitX=0.915;exitY=0.519;exitDx=0;exitDy=0;exitPerimeter=0;entryX=0;entryY=0.5;entryDx=0;entryDy=0;" edge="1" parent="1" target="9DtUrn91igBEEmTVcV1j-8">
          <mxGeometry width="50" height="50" relative="1" as="geometry">
            <mxPoint x="142.35000000000014" y="317.4699999999998" as="sourcePoint" />
            <mxPoint x="435" y="123" as="targetPoint" />
          </mxGeometry>
        </mxCell>
        <mxCell id="9DtUrn91igBEEmTVcV1j-14" value="" style="endArrow=none;html=1;rounded=0;entryX=0;entryY=0.5;entryDx=0;entryDy=0;" edge="1" parent="1" target="9DtUrn91igBEEmTVcV1j-9">
          <mxGeometry width="50" height="50" relative="1" as="geometry">
            <mxPoint x="140" y="320" as="sourcePoint" />
            <mxPoint x="393" y="269" as="targetPoint" />
          </mxGeometry>
        </mxCell>
        <mxCell id="9DtUrn91igBEEmTVcV1j-15" value="" style="endArrow=none;html=1;rounded=0;entryX=0;entryY=0.5;entryDx=0;entryDy=0;" edge="1" parent="1" target="9DtUrn91igBEEmTVcV1j-10">
          <mxGeometry width="50" height="50" relative="1" as="geometry">
            <mxPoint x="140" y="320" as="sourcePoint" />
            <mxPoint x="403" y="279" as="targetPoint" />
          </mxGeometry>
        </mxCell>
        <mxCell id="9DtUrn91igBEEmTVcV1j-16" value="" style="endArrow=none;html=1;rounded=0;entryX=0;entryY=0.5;entryDx=0;entryDy=0;" edge="1" parent="1" target="9DtUrn91igBEEmTVcV1j-11">
          <mxGeometry width="50" height="50" relative="1" as="geometry">
            <mxPoint x="140" y="320" as="sourcePoint" />
            <mxPoint x="350" y="439" as="targetPoint" />
          </mxGeometry>
        </mxCell>
        <mxCell id="9DtUrn91igBEEmTVcV1j-19" value="" style="verticalLabelPosition=bottom;sketch=0;html=1;fillColor=#A153A0;verticalAlign=top;align=center;pointerEvents=1;shape=mxgraph.cisco_safe.design.actor_2;" vertex="1" parent="1">
          <mxGeometry x="70" y="260" width="80" height="120" as="geometry" />
        </mxCell>
      </root>
    </mxGraphModel>
  </diagram>
  <diagram id="1WR4diCB-m6IjUpyxqB_" name="Página-4">
    <mxGraphModel dx="1291" dy="496" grid="1" gridSize="10" guides="1" tooltips="1" connect="1" arrows="1" fold="1" page="1" pageScale="1" pageWidth="827" pageHeight="1169" math="0" shadow="0">
      <root>
        <mxCell id="0" />
        <mxCell id="1" parent="0" />
        <mxCell id="EG0NhzwKFhvonPFXJ0hH-1" value="&lt;h1&gt;&lt;font color=&quot;#7f00ff&quot;&gt;&lt;span style=&quot;font-size: 18px;&quot;&gt;ENCARGADO DE CONTROL DE CALIDAD&lt;/span&gt;&lt;/font&gt;&lt;/h1&gt;" style="text;html=1;align=center;verticalAlign=middle;resizable=0;points=[];autosize=1;strokeColor=none;fillColor=none;" vertex="1" parent="1">
          <mxGeometry x="34" y="370" width="380" height="70" as="geometry" />
        </mxCell>
        <mxCell id="EG0NhzwKFhvonPFXJ0hH-2" value="&lt;h1 style=&quot;forced-color-adjust: none; color: rgb(0, 0, 0); font-family: Helvetica; font-style: normal; font-variant-ligatures: normal; font-variant-caps: normal; letter-spacing: normal; orphans: 2; text-align: center; text-indent: 0px; text-transform: none; widows: 2; word-spacing: 0px; -webkit-text-stroke-width: 0px; white-space: nowrap; background-color: rgb(251, 251, 251); text-decoration-thickness: initial; text-decoration-style: initial; text-decoration-color: initial;&quot;&gt;&lt;font style=&quot;forced-color-adjust: none; vertical-align: inherit;&quot;&gt;&lt;font style=&quot;forced-color-adjust: none; vertical-align: inherit;&quot;&gt;&lt;font style=&quot;forced-color-adjust: none; vertical-align: inherit;&quot;&gt;&lt;font color=&quot;#7f00ff&quot; style=&quot;forced-color-adjust: none; vertical-align: inherit;&quot;&gt;SISTEMA&lt;/font&gt;&lt;/font&gt;&lt;/font&gt;&lt;/font&gt;&lt;/h1&gt;" style="text;whiteSpace=wrap;html=1;" vertex="1" parent="1">
          <mxGeometry x="480" y="60" width="240" height="80" as="geometry" />
        </mxCell>
        <mxCell id="EG0NhzwKFhvonPFXJ0hH-3" value="&lt;span style=&quot;font-size: 11pt; line-height: 107%; font-family: Calibri, sans-serif;&quot; lang=&quot;ES-CL&quot;&gt;R17 Realizar inspecciones de calidad.&lt;/span&gt;" style="ellipse;whiteSpace=wrap;html=1;fillColor=#dae8fc;strokeColor=#6c8ebf;" vertex="1" parent="1">
          <mxGeometry x="370" y="160" width="300" height="50" as="geometry" />
        </mxCell>
        <mxCell id="EG0NhzwKFhvonPFXJ0hH-7" value="" style="endArrow=none;html=1;rounded=0;exitX=1.075;exitY=0.44;exitDx=0;exitDy=0;exitPerimeter=0;entryX=0;entryY=0.5;entryDx=0;entryDy=0;" edge="1" parent="1" target="EG0NhzwKFhvonPFXJ0hH-3" source="EG0NhzwKFhvonPFXJ0hH-11">
          <mxGeometry width="50" height="50" relative="1" as="geometry">
            <mxPoint x="142.35000000000014" y="317.4699999999998" as="sourcePoint" />
            <mxPoint x="435" y="123" as="targetPoint" />
          </mxGeometry>
        </mxCell>
        <mxCell id="EG0NhzwKFhvonPFXJ0hH-11" value="" style="verticalLabelPosition=bottom;sketch=0;html=1;fillColor=#A153A0;verticalAlign=top;align=center;pointerEvents=1;shape=mxgraph.cisco_safe.design.actor_2;" vertex="1" parent="1">
          <mxGeometry x="100" y="250" width="80" height="120" as="geometry" />
        </mxCell>
        <mxCell id="EG0NhzwKFhvonPFXJ0hH-12" value="&lt;span style=&quot;font-size: 11pt; line-height: 107%; font-family: Calibri, sans-serif;&quot; lang=&quot;ES-CL&quot;&gt;R18 Clasificar productos como &quot;Apto&quot; o &quot;No apto&quot;&lt;/span&gt;" style="ellipse;whiteSpace=wrap;html=1;fillColor=#fff2cc;strokeColor=#d6b656;" vertex="1" parent="1">
          <mxGeometry x="480" y="270" width="300" height="50" as="geometry" />
        </mxCell>
        <mxCell id="_ZNub_HV9wiHclIJRq_f-2" style="edgeStyle=orthogonalEdgeStyle;rounded=0;orthogonalLoop=1;jettySize=auto;html=1;entryX=0.257;entryY=-0.02;entryDx=0;entryDy=0;entryPerimeter=0;" edge="1" parent="1" source="EG0NhzwKFhvonPFXJ0hH-3" target="EG0NhzwKFhvonPFXJ0hH-12">
          <mxGeometry relative="1" as="geometry" />
        </mxCell>
        <mxCell id="_ZNub_HV9wiHclIJRq_f-3" value="&amp;lt;&amp;lt;Inclusión&amp;gt;&amp;gt;" style="edgeLabel;html=1;align=center;verticalAlign=middle;resizable=0;points=[];" vertex="1" connectable="0" parent="_ZNub_HV9wiHclIJRq_f-2">
          <mxGeometry x="-0.0429" y="-2" relative="1" as="geometry">
            <mxPoint as="offset" />
          </mxGeometry>
        </mxCell>
      </root>
    </mxGraphModel>
  </diagram>
  <diagram id="NhYz3HEQhC2DZidRD0tF" name="Página-5">
    <mxGraphModel dx="1489" dy="572" grid="1" gridSize="10" guides="1" tooltips="1" connect="1" arrows="1" fold="1" page="1" pageScale="1" pageWidth="827" pageHeight="1169" math="0" shadow="0">
      <root>
        <mxCell id="0" />
        <mxCell id="1" parent="0" />
        <mxCell id="sYerlJQhAIJ237sol7N_-1" value="&lt;h1&gt;&lt;font color=&quot;#7f00ff&quot;&gt;&lt;span style=&quot;font-size: 18px;&quot;&gt;ADMINISTRADOR DE PAGOS&amp;nbsp;&lt;/span&gt;&lt;/font&gt;&lt;/h1&gt;" style="text;html=1;align=center;verticalAlign=middle;resizable=0;points=[];autosize=1;strokeColor=none;fillColor=none;" vertex="1" parent="1">
          <mxGeometry y="460" width="280" height="70" as="geometry" />
        </mxCell>
        <mxCell id="sYerlJQhAIJ237sol7N_-2" value="&lt;h1 style=&quot;forced-color-adjust: none; color: rgb(0, 0, 0); font-family: Helvetica; font-style: normal; font-variant-ligatures: normal; font-variant-caps: normal; letter-spacing: normal; orphans: 2; text-align: center; text-indent: 0px; text-transform: none; widows: 2; word-spacing: 0px; -webkit-text-stroke-width: 0px; white-space: nowrap; background-color: rgb(251, 251, 251); text-decoration-thickness: initial; text-decoration-style: initial; text-decoration-color: initial;&quot;&gt;&lt;font style=&quot;forced-color-adjust: none; vertical-align: inherit;&quot;&gt;&lt;font style=&quot;forced-color-adjust: none; vertical-align: inherit;&quot;&gt;&lt;font style=&quot;forced-color-adjust: none; vertical-align: inherit;&quot;&gt;&lt;font color=&quot;#7f00ff&quot; style=&quot;forced-color-adjust: none; vertical-align: inherit;&quot;&gt;SISTEMA&lt;/font&gt;&lt;/font&gt;&lt;/font&gt;&lt;/font&gt;&lt;/h1&gt;" style="text;whiteSpace=wrap;html=1;" vertex="1" parent="1">
          <mxGeometry x="490" y="90" width="240" height="80" as="geometry" />
        </mxCell>
        <mxCell id="sYerlJQhAIJ237sol7N_-3" value="R29&amp;nbsp;&lt;span style=&quot;color: rgba(0, 0, 0, 0); font-family: monospace; font-size: 0px; text-align: start; text-wrap-mode: nowrap;&quot;&gt;%3CmxGraphModel%3E%3Croot%3E%3CmxCell%20id%3D%220%22%2F%3E%3CmxCell%20id%3D%221%22%20parent%3D%220%22%2F%3E%3CmxCell%20id%3D%222%22%20value%3D%22R12%26amp%3Bnbsp%3B%26lt%3Bspan%20style%3D%26quot%3Bfont-size%3A%2011pt%3B%20line-height%3A%20107%25%3B%20font-family%3A%20Calibri%2C%20sans-serif%3B%26quot%3B%20lang%3D%26quot%3BES-CL%26quot%3B%26gt%3BActualizar%20informaci%C3%B3n%20de%20inventario%20disponible%26lt%3B%2Fspan%26gt%3B%22%20style%3D%22ellipse%3BwhiteSpace%3Dwrap%3Bhtml%3D1%3BfillColor%3D%23dae8fc%3BstrokeColor%3D%236c8ebf%3B%22%20vertex%3D%221%22%20parent%3D%221%22%3E%3CmxGeometry%20x%3D%22434%22%20y%3D%22295%22%20width%3D%22300%22%20height%3D%2250%22%20as%3D%22geometry%22%2F%3E%3C%2FmxCell%3E%3C%2Froot%3E%3C%2FmxGraphModel%3E&lt;/span&gt;&lt;span style=&quot;font-size: 11pt; line-height: 107%; font-family: Calibri, sans-serif;&quot; lang=&quot;ES-CL&quot;&gt;Recibir alertas sobre fallos en pagos&lt;/span&gt;" style="ellipse;whiteSpace=wrap;html=1;fillColor=#dae8fc;strokeColor=#6c8ebf;" vertex="1" parent="1">
          <mxGeometry x="450" y="350" width="300" height="50" as="geometry" />
        </mxCell>
        <mxCell id="sYerlJQhAIJ237sol7N_-4" value="R30&amp;nbsp;&amp;nbsp;&lt;span style=&quot;font-size: 11pt; line-height: 107%; font-family: Calibri, sans-serif;&quot; lang=&quot;ES-CL&quot;&gt;Confirmar procesamiento correcto de pagos&lt;/span&gt;" style="ellipse;whiteSpace=wrap;html=1;fillColor=#dae8fc;strokeColor=#6c8ebf;" vertex="1" parent="1">
          <mxGeometry x="414" y="410" width="340" height="30" as="geometry" />
        </mxCell>
        <mxCell id="sYerlJQhAIJ237sol7N_-5" value="R39&amp;nbsp;&lt;span style=&quot;font-size: 11pt; line-height: 107%; font-family: Calibri, sans-serif;&quot; lang=&quot;ES-CL&quot;&gt;Actualizar los métodos de pago disponibles.&lt;/span&gt;" style="ellipse;whiteSpace=wrap;html=1;fillColor=#dae8fc;strokeColor=#6c8ebf;" vertex="1" parent="1">
          <mxGeometry x="437.5" y="470" width="310" height="40" as="geometry" />
        </mxCell>
        <mxCell id="sYerlJQhAIJ237sol7N_-6" value="R40&amp;nbsp;&lt;span style=&quot;font-size: 11pt; line-height: 107%; font-family: Calibri, sans-serif;&quot; lang=&quot;ES-CL&quot;&gt;Supervisar promociones y tarifas especiales aplicadas a clientes VIP&lt;/span&gt;" style="ellipse;whiteSpace=wrap;html=1;fillColor=#dae8fc;strokeColor=#6c8ebf;" vertex="1" parent="1">
          <mxGeometry x="376.25" y="530" width="447.5" height="40" as="geometry" />
        </mxCell>
        <mxCell id="sYerlJQhAIJ237sol7N_-7" value="" style="endArrow=none;html=1;rounded=0;exitX=0.915;exitY=0.519;exitDx=0;exitDy=0;exitPerimeter=0;entryX=0;entryY=0.5;entryDx=0;entryDy=0;" edge="1" parent="1" target="sYerlJQhAIJ237sol7N_-3">
          <mxGeometry width="50" height="50" relative="1" as="geometry">
            <mxPoint x="142.35000000000014" y="317.4699999999998" as="sourcePoint" />
            <mxPoint x="435" y="123" as="targetPoint" />
          </mxGeometry>
        </mxCell>
        <mxCell id="sYerlJQhAIJ237sol7N_-8" value="" style="endArrow=none;html=1;rounded=0;entryX=0;entryY=0.5;entryDx=0;entryDy=0;" edge="1" parent="1" target="sYerlJQhAIJ237sol7N_-4">
          <mxGeometry width="50" height="50" relative="1" as="geometry">
            <mxPoint x="140" y="320" as="sourcePoint" />
            <mxPoint x="393" y="269" as="targetPoint" />
          </mxGeometry>
        </mxCell>
        <mxCell id="sYerlJQhAIJ237sol7N_-9" value="" style="endArrow=none;html=1;rounded=0;entryX=0;entryY=0.5;entryDx=0;entryDy=0;" edge="1" parent="1" target="sYerlJQhAIJ237sol7N_-5">
          <mxGeometry width="50" height="50" relative="1" as="geometry">
            <mxPoint x="140" y="320" as="sourcePoint" />
            <mxPoint x="403" y="279" as="targetPoint" />
          </mxGeometry>
        </mxCell>
        <mxCell id="sYerlJQhAIJ237sol7N_-10" value="" style="endArrow=none;html=1;rounded=0;entryX=0;entryY=0.5;entryDx=0;entryDy=0;" edge="1" parent="1" target="sYerlJQhAIJ237sol7N_-6">
          <mxGeometry width="50" height="50" relative="1" as="geometry">
            <mxPoint x="140" y="320" as="sourcePoint" />
            <mxPoint x="350" y="439" as="targetPoint" />
          </mxGeometry>
        </mxCell>
        <mxCell id="sYerlJQhAIJ237sol7N_-11" value="" style="verticalLabelPosition=bottom;sketch=0;html=1;fillColor=#A153A0;verticalAlign=top;align=center;pointerEvents=1;shape=mxgraph.cisco_safe.design.actor_2;" vertex="1" parent="1">
          <mxGeometry x="70" y="260" width="80" height="120" as="geometry" />
        </mxCell>
        <mxCell id="sYerlJQhAIJ237sol7N_-18" style="edgeStyle=orthogonalEdgeStyle;rounded=0;orthogonalLoop=1;jettySize=auto;html=1;" edge="1" parent="1" source="sYerlJQhAIJ237sol7N_-12" target="sYerlJQhAIJ237sol7N_-16">
          <mxGeometry relative="1" as="geometry" />
        </mxCell>
        <mxCell id="sYerlJQhAIJ237sol7N_-23" value="&amp;lt;&amp;lt;Inclusión&amp;gt;&amp;gt;" style="edgeLabel;html=1;align=center;verticalAlign=middle;resizable=0;points=[];" vertex="1" connectable="0" parent="sYerlJQhAIJ237sol7N_-18">
          <mxGeometry x="-0.0127" y="1" relative="1" as="geometry">
            <mxPoint as="offset" />
          </mxGeometry>
        </mxCell>
        <mxCell id="sYerlJQhAIJ237sol7N_-12" value="R27&amp;nbsp;&amp;nbsp;&lt;span style=&quot;font-size: 11pt; line-height: 107%; font-family: Calibri, sans-serif;&quot; lang=&quot;ES-CL&quot;&gt;Generar informes de transacciones realizadas&lt;/span&gt;" style="ellipse;whiteSpace=wrap;html=1;fillColor=#dae8fc;strokeColor=#6c8ebf;" vertex="1" parent="1">
          <mxGeometry x="432" y="240" width="328" height="40" as="geometry" />
        </mxCell>
        <mxCell id="sYerlJQhAIJ237sol7N_-14" value="R28&amp;nbsp;&amp;nbsp;&lt;span style=&quot;font-size: 11pt; line-height: 107%; font-family: Calibri, sans-serif;&quot; lang=&quot;ES-CL&quot;&gt;Gestionar devoluciones y reembolsos&lt;/span&gt;" style="ellipse;whiteSpace=wrap;html=1;fillColor=#dae8fc;strokeColor=#6c8ebf;" vertex="1" parent="1">
          <mxGeometry x="442.5" y="290" width="300" height="50" as="geometry" />
        </mxCell>
        <mxCell id="sYerlJQhAIJ237sol7N_-15" value="R26&amp;nbsp;&lt;span style=&quot;font-size: 11pt; line-height: 107%; font-family: Calibri, sans-serif;&quot; lang=&quot;ES-CL&quot;&gt;Aplicar descuentos automáticos&lt;/span&gt;" style="ellipse;whiteSpace=wrap;html=1;fillColor=#fff2cc;strokeColor=#d6b656;" vertex="1" parent="1">
          <mxGeometry x="860" y="160" width="336" height="50" as="geometry" />
        </mxCell>
        <mxCell id="sYerlJQhAIJ237sol7N_-16" value="R25&amp;nbsp;&lt;span style=&quot;font-size: 11pt; line-height: 107%; font-family: Calibri, sans-serif;&quot; lang=&quot;ES-CL&quot;&gt;Validar precios antes de procesar cobros&lt;/span&gt;" style="ellipse;whiteSpace=wrap;html=1;fillColor=#fff2cc;strokeColor=#d6b656;" vertex="1" parent="1">
          <mxGeometry x="850" y="235" width="336" height="50" as="geometry" />
        </mxCell>
        <mxCell id="sYerlJQhAIJ237sol7N_-21" style="edgeStyle=orthogonalEdgeStyle;rounded=0;orthogonalLoop=1;jettySize=auto;html=1;entryX=1;entryY=0.5;entryDx=0;entryDy=0;" edge="1" parent="1" source="sYerlJQhAIJ237sol7N_-17" target="sYerlJQhAIJ237sol7N_-4">
          <mxGeometry relative="1" as="geometry" />
        </mxCell>
        <mxCell id="sYerlJQhAIJ237sol7N_-22" value="&amp;lt;&amp;lt;Extensión&amp;gt;&amp;gt;" style="edgeLabel;html=1;align=center;verticalAlign=middle;resizable=0;points=[];" vertex="1" connectable="0" parent="sYerlJQhAIJ237sol7N_-21">
          <mxGeometry x="-0.1313" y="-2" relative="1" as="geometry">
            <mxPoint as="offset" />
          </mxGeometry>
        </mxCell>
        <mxCell id="sYerlJQhAIJ237sol7N_-17" value="R24&amp;nbsp;&lt;span style=&quot;font-size: 11pt; line-height: 107%; font-family: Calibri, sans-serif;&quot; lang=&quot;ES-CL&quot;&gt;Gestionar tarifas de métodos de pago&lt;/span&gt;" style="ellipse;whiteSpace=wrap;html=1;fillColor=#e1d5e7;strokeColor=#9673a6;" vertex="1" parent="1">
          <mxGeometry x="860" y="397.5" width="270" height="50" as="geometry" />
        </mxCell>
        <mxCell id="sYerlJQhAIJ237sol7N_-20" value="" style="endArrow=classic;html=1;rounded=0;exitX=0.976;exitY=0.244;exitDx=0;exitDy=0;exitPerimeter=0;" edge="1" parent="1" source="sYerlJQhAIJ237sol7N_-12">
          <mxGeometry width="50" height="50" relative="1" as="geometry">
            <mxPoint x="790" y="360" as="sourcePoint" />
            <mxPoint x="860" y="190" as="targetPoint" />
          </mxGeometry>
        </mxCell>
        <mxCell id="sYerlJQhAIJ237sol7N_-24" value="&amp;lt;&amp;lt;Inclusión&amp;gt;&amp;gt;" style="edgeLabel;html=1;align=center;verticalAlign=middle;resizable=0;points=[];" vertex="1" connectable="0" parent="sYerlJQhAIJ237sol7N_-20">
          <mxGeometry x="-0.0561" y="7" relative="1" as="geometry">
            <mxPoint as="offset" />
          </mxGeometry>
        </mxCell>
        <mxCell id="sYerlJQhAIJ237sol7N_-25" value="" style="endArrow=none;html=1;rounded=0;exitX=1.018;exitY=0.534;exitDx=0;exitDy=0;exitPerimeter=0;entryX=0;entryY=0.5;entryDx=0;entryDy=0;" edge="1" parent="1" source="sYerlJQhAIJ237sol7N_-11" target="sYerlJQhAIJ237sol7N_-12">
          <mxGeometry width="50" height="50" relative="1" as="geometry">
            <mxPoint x="152.35000000000014" y="327.4699999999998" as="sourcePoint" />
            <mxPoint x="460" y="385" as="targetPoint" />
          </mxGeometry>
        </mxCell>
        <mxCell id="sYerlJQhAIJ237sol7N_-26" value="" style="endArrow=none;html=1;rounded=0;exitX=0.974;exitY=0.525;exitDx=0;exitDy=0;exitPerimeter=0;entryX=0;entryY=0.5;entryDx=0;entryDy=0;" edge="1" parent="1" source="sYerlJQhAIJ237sol7N_-11" target="sYerlJQhAIJ237sol7N_-14">
          <mxGeometry width="50" height="50" relative="1" as="geometry">
            <mxPoint x="161" y="334" as="sourcePoint" />
            <mxPoint x="442" y="270" as="targetPoint" />
          </mxGeometry>
        </mxCell>
      </root>
    </mxGraphModel>
  </diagram>
  <diagram id="PAxH707j-jqp3_B_PGLb" name="Página-6">
    <mxGraphModel dx="2151" dy="827" grid="1" gridSize="10" guides="1" tooltips="1" connect="1" arrows="1" fold="1" page="1" pageScale="1" pageWidth="827" pageHeight="1169" math="0" shadow="0">
      <root>
        <mxCell id="0" />
        <mxCell id="1" parent="0" />
        <mxCell id="zcH2hKpH1knViut0gDC6-1" value="&lt;h1&gt;&lt;font color=&quot;#7f00ff&quot;&gt;&lt;span style=&quot;font-size: 18px;&quot;&gt;PROVEEDOR&lt;/span&gt;&lt;/font&gt;&lt;/h1&gt;" style="text;html=1;align=center;verticalAlign=middle;resizable=0;points=[];autosize=1;strokeColor=none;fillColor=none;" vertex="1" parent="1">
          <mxGeometry x="40" y="380" width="140" height="70" as="geometry" />
        </mxCell>
        <mxCell id="zcH2hKpH1knViut0gDC6-2" value="&lt;h1 style=&quot;forced-color-adjust: none; color: rgb(0, 0, 0); font-family: Helvetica; font-style: normal; font-variant-ligatures: normal; font-variant-caps: normal; letter-spacing: normal; orphans: 2; text-align: center; text-indent: 0px; text-transform: none; widows: 2; word-spacing: 0px; -webkit-text-stroke-width: 0px; white-space: nowrap; background-color: rgb(251, 251, 251); text-decoration-thickness: initial; text-decoration-style: initial; text-decoration-color: initial;&quot;&gt;&lt;font style=&quot;forced-color-adjust: none; vertical-align: inherit;&quot;&gt;&lt;font style=&quot;forced-color-adjust: none; vertical-align: inherit;&quot;&gt;&lt;font style=&quot;forced-color-adjust: none; vertical-align: inherit;&quot;&gt;&lt;font color=&quot;#7f00ff&quot; style=&quot;forced-color-adjust: none; vertical-align: inherit;&quot;&gt;SISTEMA&lt;/font&gt;&lt;/font&gt;&lt;/font&gt;&lt;/font&gt;&lt;/h1&gt;" style="text;whiteSpace=wrap;html=1;" vertex="1" parent="1">
          <mxGeometry x="487.75" y="20" width="152.5" height="40" as="geometry" />
        </mxCell>
        <mxCell id="zcH2hKpH1knViut0gDC6-3" value="R12&amp;nbsp;&lt;span style=&quot;font-size: 11pt; line-height: 107%; font-family: Calibri, sans-serif;&quot; lang=&quot;ES-CL&quot;&gt;Actualizar información de inventario disponible&lt;/span&gt;" style="ellipse;whiteSpace=wrap;html=1;fillColor=#fff2cc;strokeColor=#d6b656;" vertex="1" parent="1">
          <mxGeometry x="810" y="130" width="300" height="50" as="geometry" />
        </mxCell>
        <mxCell id="zcH2hKpH1knViut0gDC6-4" value="R31&amp;nbsp;&amp;nbsp;&lt;span style=&quot;font-size: 11pt; line-height: 107%; font-family: Calibri, sans-serif;&quot; lang=&quot;ES-CL&quot;&gt;Recibir notificaciones sobre cambios en la demanda de productos&lt;/span&gt;" style="ellipse;whiteSpace=wrap;html=1;fillColor=#dae8fc;strokeColor=#6c8ebf;" vertex="1" parent="1">
          <mxGeometry x="363.75" y="370" width="413.75" height="70" as="geometry" />
        </mxCell>
        <mxCell id="zcH2hKpH1knViut0gDC6-5" value="R32&amp;nbsp;&lt;span style=&quot;font-size: 11pt; line-height: 107%; font-family: Calibri, sans-serif;&quot; lang=&quot;ES-CL&quot;&gt;Proponer nuevas tarifas por cambios en costos de producción&lt;/span&gt;" style="ellipse;whiteSpace=wrap;html=1;fillColor=#dae8fc;strokeColor=#6c8ebf;" vertex="1" parent="1">
          <mxGeometry x="351.88" y="450" width="403.75" height="50" as="geometry" />
        </mxCell>
        <mxCell id="zcH2hKpH1knViut0gDC6-6" value="R33&amp;nbsp;&lt;span style=&quot;font-size: 11pt; line-height: 107%; font-family: Calibri, sans-serif;&quot; lang=&quot;ES-CL&quot;&gt;Revisar y actualizar tarifas de envío acordes con la tienda&lt;/span&gt;" style="ellipse;whiteSpace=wrap;html=1;fillColor=#dae8fc;strokeColor=#6c8ebf;" vertex="1" parent="1">
          <mxGeometry x="330" y="510" width="447.5" height="40" as="geometry" />
        </mxCell>
        <mxCell id="zcH2hKpH1knViut0gDC6-8" value="" style="endArrow=none;html=1;rounded=0;entryX=0;entryY=0.5;entryDx=0;entryDy=0;exitX=1;exitY=0.5;exitDx=0;exitDy=0;exitPerimeter=0;" edge="1" parent="1" target="zcH2hKpH1knViut0gDC6-4">
          <mxGeometry width="50" height="50" relative="1" as="geometry">
            <mxPoint x="130" y="284.9999999999998" as="sourcePoint" />
            <mxPoint x="393" y="269" as="targetPoint" />
          </mxGeometry>
        </mxCell>
        <mxCell id="zcH2hKpH1knViut0gDC6-9" value="" style="endArrow=none;html=1;rounded=0;entryX=0;entryY=0.5;entryDx=0;entryDy=0;exitX=0.967;exitY=0.508;exitDx=0;exitDy=0;exitPerimeter=0;" edge="1" parent="1" target="zcH2hKpH1knViut0gDC6-5">
          <mxGeometry width="50" height="50" relative="1" as="geometry">
            <mxPoint x="127.02999999999997" y="285.9599999999998" as="sourcePoint" />
            <mxPoint x="403" y="279" as="targetPoint" />
          </mxGeometry>
        </mxCell>
        <mxCell id="zcH2hKpH1knViut0gDC6-10" value="" style="endArrow=none;html=1;rounded=0;entryX=0;entryY=0.5;entryDx=0;entryDy=0;exitX=0.902;exitY=0.501;exitDx=0;exitDy=0;exitPerimeter=0;" edge="1" parent="1" target="zcH2hKpH1knViut0gDC6-6">
          <mxGeometry width="50" height="50" relative="1" as="geometry">
            <mxPoint x="121.17999999999984" y="285.11999999999966" as="sourcePoint" />
            <mxPoint x="350" y="439" as="targetPoint" />
          </mxGeometry>
        </mxCell>
        <mxCell id="3O7K5hidMFl-XKYvW-cw-5" value="R11&amp;nbsp;&lt;span style=&quot;font-size: 11pt; line-height: 107%; font-family: Calibri, sans-serif;&quot; lang=&quot;ES-CL&quot;&gt;Ofrecer promociones por exceso de stock.&lt;/span&gt;" style="ellipse;whiteSpace=wrap;html=1;fillColor=#e1d5e7;strokeColor=#9673a6;" vertex="1" parent="1">
          <mxGeometry x="810" y="50" width="300" height="40" as="geometry" />
        </mxCell>
        <mxCell id="3O7K5hidMFl-XKYvW-cw-6" value="R10&amp;nbsp;&lt;span style=&quot;font-size: 11pt; line-height: 107%; font-family: Calibri, sans-serif;&quot; lang=&quot;ES-CL&quot;&gt;Consultar catálogo actualizado&lt;/span&gt;" style="ellipse;whiteSpace=wrap;html=1;fillColor=#dae8fc;strokeColor=#6c8ebf;" vertex="1" parent="1">
          <mxGeometry x="414" y="320" width="300" height="30" as="geometry" />
        </mxCell>
        <mxCell id="3O7K5hidMFl-XKYvW-cw-7" value="R9&amp;nbsp;&lt;span style=&quot;font-size: 11pt; line-height: 107%; font-family: Calibri, sans-serif;&quot; lang=&quot;ES-CL&quot;&gt;Recibir pedidos anticipados&lt;/span&gt;" style="ellipse;whiteSpace=wrap;html=1;fillColor=#dae8fc;strokeColor=#6c8ebf;" vertex="1" parent="1">
          <mxGeometry x="414" y="270" width="300" height="30" as="geometry" />
        </mxCell>
        <mxCell id="3O7K5hidMFl-XKYvW-cw-8" value="R8&amp;nbsp;&lt;span style=&quot;font-size: 11pt; line-height: 107%; font-family: Calibri, sans-serif;&quot; lang=&quot;ES-CL&quot;&gt;Gestionar tarifas de productos&lt;/span&gt;" style="ellipse;whiteSpace=wrap;html=1;fillColor=#dae8fc;strokeColor=#6c8ebf;" vertex="1" parent="1">
          <mxGeometry x="420.63" y="220" width="300" height="30" as="geometry" />
        </mxCell>
        <mxCell id="3O7K5hidMFl-XKYvW-cw-10" style="edgeStyle=orthogonalEdgeStyle;rounded=0;orthogonalLoop=1;jettySize=auto;html=1;entryX=0;entryY=0.5;entryDx=0;entryDy=0;" edge="1" parent="1" source="3O7K5hidMFl-XKYvW-cw-9" target="zcH2hKpH1knViut0gDC6-3">
          <mxGeometry relative="1" as="geometry" />
        </mxCell>
        <mxCell id="3O7K5hidMFl-XKYvW-cw-11" value="&amp;lt;&amp;lt;Inclusión&amp;gt;&amp;gt;" style="edgeLabel;html=1;align=center;verticalAlign=middle;resizable=0;points=[];" vertex="1" connectable="0" parent="3O7K5hidMFl-XKYvW-cw-10">
          <mxGeometry x="-0.3662" y="1" relative="1" as="geometry">
            <mxPoint x="15" y="1" as="offset" />
          </mxGeometry>
        </mxCell>
        <mxCell id="3O7K5hidMFl-XKYvW-cw-9" value="R1&amp;nbsp;&lt;span style=&quot;color: rgba(0, 0, 0, 0); font-family: monospace; font-size: 0px; text-align: start; text-wrap-mode: nowrap;&quot;&gt;%3CmxGraphModel%3E%3Croot%3E%3CmxCell%20id%3D%220%22%2F%3E%3CmxCell%20id%3D%221%22%20parent%3D%220%22%2F%3E%3CmxCell%20id%3D%222%22%20value%3D%22R8%26amp%3Bnbsp%3B%26lt%3Bspan%20style%3D%26quot%3Bfont-size%3A%2011pt%3B%20line-height%3A%20107%25%3B%20font-family%3A%20Calibri%2C%20sans-serif%3B%26quot%3B%20lang%3D%26quot%3BES-CL%26quot%3B%26gt%3BGestionar%20tarifas%20de%20productos%26lt%3B%2Fspan%26gt%3B%22%20style%3D%22ellipse%3BwhiteSpace%3Dwrap%3Bhtml%3D1%3BfillColor%3D%23dae8fc%3BstrokeColor%3D%236c8ebf%3B%22%20vertex%3D%221%22%20parent%3D%221%22%3E%3CmxGeometry%20x%3D%22430%22%20y%3D%22-70%22%20width%3D%22300%22%20height%3D%2250%22%20as%3D%22geometry%22%2F%3E%3C%2FmxCell%3E%3C%2Froot%3E%3C%2FmxGraphModel%3E&lt;/span&gt;&lt;span style=&quot;font-size: 11pt; line-height: 107%; font-family: Calibri, sans-serif;&quot; lang=&quot;ES-CL&quot;&gt;Visualizar catálogo de productos&lt;/span&gt;&lt;span style=&quot;font-size:12.0pt;mso-bidi-font-size:11.0pt;line-height:107%;font-family:&lt;br/&gt;&amp;quot;Times New Roman&amp;quot;,serif;mso-fareast-font-family:&amp;quot;Times New Roman&amp;quot;;color:gray;&lt;br/&gt;mso-ansi-language:ES-CL;mso-fareast-language:ES-CL;mso-bidi-language:AR-SA&quot; lang=&quot;ES-CL&quot;&gt;&lt;/span&gt;" style="ellipse;whiteSpace=wrap;html=1;fillColor=#dae8fc;strokeColor=#6c8ebf;" vertex="1" parent="1">
          <mxGeometry x="390" y="140" width="300" height="30" as="geometry" />
        </mxCell>
        <mxCell id="3O7K5hidMFl-XKYvW-cw-12" value="" style="endArrow=classic;html=1;rounded=0;exitX=0;exitY=0.5;exitDx=0;exitDy=0;entryX=0.911;entryY=0.165;entryDx=0;entryDy=0;entryPerimeter=0;" edge="1" parent="1" source="3O7K5hidMFl-XKYvW-cw-5" target="3O7K5hidMFl-XKYvW-cw-9">
          <mxGeometry width="50" height="50" relative="1" as="geometry">
            <mxPoint x="710" y="-140" as="sourcePoint" />
            <mxPoint x="760" y="-190" as="targetPoint" />
          </mxGeometry>
        </mxCell>
        <mxCell id="3O7K5hidMFl-XKYvW-cw-13" value="&amp;lt;&amp;lt;Extensión&amp;gt;&amp;gt;" style="edgeLabel;html=1;align=center;verticalAlign=middle;resizable=0;points=[];" vertex="1" connectable="0" parent="3O7K5hidMFl-XKYvW-cw-12">
          <mxGeometry x="0.1813" y="1" relative="1" as="geometry">
            <mxPoint as="offset" />
          </mxGeometry>
        </mxCell>
        <mxCell id="3O7K5hidMFl-XKYvW-cw-14" value="" style="endArrow=none;html=1;rounded=0;entryX=0;entryY=0.5;entryDx=0;entryDy=0;exitX=1.031;exitY=0.467;exitDx=0;exitDy=0;exitPerimeter=0;" edge="1" parent="1" target="3O7K5hidMFl-XKYvW-cw-9">
          <mxGeometry width="50" height="50" relative="1" as="geometry">
            <mxPoint x="132.78999999999996" y="281.03999999999996" as="sourcePoint" />
            <mxPoint x="374" y="415" as="targetPoint" />
          </mxGeometry>
        </mxCell>
        <mxCell id="3O7K5hidMFl-XKYvW-cw-15" value="" style="endArrow=none;html=1;rounded=0;entryX=0;entryY=0.5;entryDx=0;entryDy=0;exitX=0.985;exitY=0.481;exitDx=0;exitDy=0;exitPerimeter=0;" edge="1" parent="1" target="3O7K5hidMFl-XKYvW-cw-8">
          <mxGeometry width="50" height="50" relative="1" as="geometry">
            <mxPoint x="128.6500000000001" y="282.72" as="sourcePoint" />
            <mxPoint x="400" y="165" as="targetPoint" />
          </mxGeometry>
        </mxCell>
        <mxCell id="3O7K5hidMFl-XKYvW-cw-16" value="" style="endArrow=none;html=1;rounded=0;entryX=0;entryY=0.5;entryDx=0;entryDy=0;exitX=0.92;exitY=0.508;exitDx=0;exitDy=0;exitPerimeter=0;" edge="1" parent="1" target="3O7K5hidMFl-XKYvW-cw-7">
          <mxGeometry width="50" height="50" relative="1" as="geometry">
            <mxPoint x="122.79999999999995" y="285.9599999999998" as="sourcePoint" />
            <mxPoint x="410" y="175" as="targetPoint" />
          </mxGeometry>
        </mxCell>
        <mxCell id="3O7K5hidMFl-XKYvW-cw-17" value="" style="endArrow=none;html=1;rounded=0;entryX=0;entryY=0.5;entryDx=0;entryDy=0;exitX=0.911;exitY=0.508;exitDx=0;exitDy=0;exitPerimeter=0;" edge="1" parent="1" target="3O7K5hidMFl-XKYvW-cw-6">
          <mxGeometry width="50" height="50" relative="1" as="geometry">
            <mxPoint x="121.99000000000001" y="285.9599999999998" as="sourcePoint" />
            <mxPoint x="424" y="295" as="targetPoint" />
          </mxGeometry>
        </mxCell>
        <mxCell id="3O7K5hidMFl-XKYvW-cw-18" value="" style="verticalLabelPosition=bottom;sketch=0;html=1;fillColor=#A153A0;verticalAlign=top;align=center;pointerEvents=1;shape=mxgraph.cisco_safe.design.actor_1;" vertex="1" parent="1">
          <mxGeometry x="50" y="230" width="80" height="110" as="geometry" />
        </mxCell>
      </root>
    </mxGraphModel>
  </diagram>
</mxfile>
